<svg width="19" height="23" viewBox="0 0 19 23" fill="none" xmlns="http://www.w3.org/2000/svg">
<path d="M9.5025 11.2188C10.0446 11.2188 10.5078 11.0257 10.8922 10.6397C11.2766 10.2537 11.4688 9.7896 11.4688 9.2475C11.4688 8.70542 11.2757 8.24219 10.8897 7.85781C10.5037 7.47344 10.0396 7.28125 9.4975 7.28125C8.95542 7.28125 8.49219 7.47427 8.10781 7.86032C7.72344 8.24634 7.53125 8.7104 7.53125 9.2525C7.53125 9.79458 7.72427 10.2578 8.11032 10.6422C8.49634 11.0266 8.9604 11.2188 9.5025 11.2188ZM9.5 20.5281C11.9937 18.2594 13.8359 16.2016 15.0266 14.3547C16.2172 12.5078 16.8125 10.8812 16.8125 9.475C16.8125 7.26644 16.1066 5.45805 14.6949 4.04983C13.2832 2.64161 11.5516 1.9375 9.5 1.9375C7.44843 1.9375 5.71679 2.64161 4.30509 4.04983C2.89336 5.45805 2.1875 7.26644 2.1875 9.475C2.1875 10.8812 2.79688 12.5078 4.01562 14.3547C5.23438 16.2016 7.0625 18.2594 9.5 20.5281ZM9.5 22.75C6.48125 20.1812 4.22656 17.7953 2.73594 15.5922C1.24531 13.3891 0.5 11.35 0.5 9.475C0.5 6.6625 1.40469 4.42188 3.21406 2.75312C5.02344 1.08438 7.11875 0.25 9.5 0.25C11.8812 0.25 13.9766 1.08438 15.7859 2.75312C17.5953 4.42188 18.5 6.6625 18.5 9.475C18.5 11.35 17.7547 13.3891 16.2641 15.5922C14.7734 17.7953 12.5188 20.1812 9.5 22.75Z" fill="white"/>
</svg>
