<svg width="127" height="27" viewBox="0 0 127 27" fill="none" xmlns="http://www.w3.org/2000/svg">
<path d="M120.7 21.3C120.3 21 119.9 20.7 119.5 20.3" stroke="#797979" stroke-miterlimit="10"/>
<path d="M117.2 18.5C85 -5.8 40.2 -5.5 8.3 19.4" stroke="#797979" stroke-miterlimit="10" stroke-dasharray="2.96 2.96"/>
<path d="M7.2 20.3C6.8 20.6 6.4 20.9 6 21.3" stroke="#797979" stroke-miterlimit="10"/>
<path d="M119.3 20.1L115.3 21.3V21.4L121.2 23.6C123 24.6 124.8 25.7 126.7 26.7C125.5 25 124.3 23.3 123 21.6L120.2 15.9H120.1L119.3 20.1Z" fill="#797979"/>
<path d="M7.4 20.1L11.4 21.3V21.4L5.5 23.6C3.7 24.6 1.9 25.7 0 26.7C1.2 25 2.4 23.3 3.7 21.6L6.5 16H6.6L7.4 20.1Z" fill="#797979"/>
</svg>
