<svg width="22" height="22" viewBox="0 0 22 22" fill="none" xmlns="http://www.w3.org/2000/svg">
<path d="M10.0833 15.5833C9.97638 15.5833 9.88472 15.5528 9.80833 15.4917C9.73194 15.4305 9.67847 15.3542 9.64791 15.2625C9.43402 14.6208 9.1743 14.0861 8.86874 13.6583C8.56319 13.2305 8.25763 12.818 7.95208 12.4208C7.64652 12.0236 7.39062 11.6111 7.18437 11.1833C6.97812 10.7555 6.87499 10.2361 6.87499 9.62499C6.87499 8.73888 7.18819 7.98263 7.81458 7.35624C8.44097 6.72985 9.19722 6.41666 10.0833 6.41666C10.9694 6.41666 11.7257 6.72985 12.3521 7.35624C12.9785 7.98263 13.2917 8.73888 13.2917 9.62499C13.2917 10.2361 13.1885 10.7555 12.9823 11.1833C12.776 11.6111 12.5201 12.0236 12.2146 12.4208C11.909 12.818 11.6035 13.2305 11.2979 13.6583C10.9924 14.0861 10.7326 14.6208 10.5187 15.2625C10.4882 15.3542 10.4347 15.4305 10.3583 15.4917C10.2819 15.5528 10.1903 15.5833 10.0833 15.5833ZM10.0833 13.0167C10.2208 12.8028 10.3583 12.6042 10.4958 12.4208C10.6333 12.2375 10.7632 12.0618 10.8854 11.8937C11.2368 11.4354 11.4965 11.0535 11.6646 10.7479C11.8326 10.4424 11.9167 10.068 11.9167 9.62499C11.9167 9.12083 11.7371 8.68923 11.3781 8.3302C11.0191 7.97117 10.5875 7.79166 10.0833 7.79166C9.57916 7.79166 9.14756 7.97117 8.78853 8.3302C8.42951 8.68923 8.24999 9.12083 8.24999 9.62499C8.24999 10.068 8.33402 10.4424 8.50208 10.7479C8.67013 11.0535 8.92985 11.4354 9.28124 11.8937C9.40347 12.0618 9.53333 12.2375 9.67083 12.4208C9.80833 12.6042 9.94583 12.8028 10.0833 13.0167ZM10.0833 10.7708C10.4042 10.7708 10.6753 10.6601 10.8969 10.4385C11.1184 10.217 11.2292 9.94583 11.2292 9.62499C11.2292 9.30416 11.1184 9.03298 10.8969 8.81145C10.6753 8.58992 10.4042 8.47916 10.0833 8.47916C9.76249 8.47916 9.49131 8.58992 9.26978 8.81145C9.04826 9.03298 8.93749 9.30416 8.93749 9.62499C8.93749 9.94583 9.04826 10.217 9.26978 10.4385C9.49131 10.6601 9.76249 10.7708 10.0833 10.7708ZM10.1521 19.3417C7.82985 19.3417 5.85902 18.5319 4.23958 16.9125C2.62013 15.293 1.81041 13.3222 1.81041 11C1.81041 9.83888 2.02812 8.75416 2.46353 7.74583C2.89895 6.73749 3.49478 5.8552 4.25103 5.09895C5.00728 4.3427 5.88958 3.74687 6.89791 3.31145C7.90624 2.87603 8.99097 2.65833 10.1521 2.65833C11.3132 2.65833 12.3979 2.87603 13.4062 3.31145C14.4146 3.74687 15.2969 4.3427 16.0531 5.09895C16.8094 5.8552 17.4052 6.73749 17.8406 7.74583C18.276 8.75416 18.4937 9.83888 18.4937 11V11.4125L20.0979 9.80833L21.0604 10.7708L17.8062 14.025L14.5521 10.7708L15.5146 9.80833L17.1187 11.4125V11C17.1187 9.09027 16.4351 7.45173 15.0677 6.08437C13.7003 4.71701 12.0618 4.03333 10.1521 4.03333C8.24235 4.03333 6.60381 4.71701 5.23645 6.08437C3.86909 7.45173 3.18541 9.09027 3.18541 11C3.18541 12.9097 3.86909 14.5483 5.23645 15.9156C6.60381 17.283 8.24235 17.9667 10.1521 17.9667C11.0229 17.9667 11.867 17.8024 12.6844 17.474C13.5017 17.1455 14.216 16.6986 14.8271 16.1333L15.8125 17.1187C15.0792 17.8062 14.216 18.3486 13.2229 18.7458C12.2299 19.143 11.2062 19.3417 10.1521 19.3417Z" fill="white"/>
</svg>
