<svg width="15" height="15" viewBox="0 0 15 15" fill="none" xmlns="http://www.w3.org/2000/svg">
<path d="M10.25 15L4.77083 13.0625L1.04167 14.5417C0.805556 14.6667 0.572917 14.6597 0.34375 14.5208C0.114583 14.3819 0 14.1736 0 13.8958V2.27083C0 2.09028 0.0520833 1.93056 0.15625 1.79167C0.260417 1.65278 0.395833 1.54861 0.5625 1.47917L4.77083 0L10.25 1.91667L13.9583 0.4375C14.1944 0.326389 14.4271 0.336806 14.6562 0.46875C14.8854 0.600694 15 0.805556 15 1.08333V12.8542C15 13.0069 14.9479 13.1389 14.8438 13.25C14.7396 13.3611 14.6111 13.4444 14.4583 13.5L10.25 15ZM9.54167 13.4375V2.91667L5.45833 1.54167V12.0625L9.54167 13.4375ZM10.7917 13.4375L13.75 12.4583V1.79167L10.7917 2.91667V13.4375ZM1.25 13.1875L4.20833 12.0625V1.54167L1.25 2.52083V13.1875Z" fill="white"/>
</svg>
