<svg width="187" height="25" viewBox="0 0 187 25" fill="none" xmlns="http://www.w3.org/2000/svg">
<path d="M2.3 3.6C2.3 4 2.5 4.2 2.8 4.2C3.2 4.2 3.3 4 3.8 4C5.2 4 5.9 4.9 5.9 5.9C5.9 7.1 5.1 8.1 3.7 8.1C2.5 8.1 0 7.3 0 4.4C0 1.5 2.5 0 6 0H10.8C11.4 0 11.9 0.3 12.1 0.8L18.1 12.9L23.5 1C23.8 0.3 24.4 0 25 0H28.9C29.5 0 29.9 0.4 29.9 0.9C29.9 1.9 28.9 1.5 28.9 4.8V14C28.9 17.2 29.9 16.9 29.9 17.9C29.9 18.4 29.5 18.8 28.9 18.8H23.9C23.3 18.8 22.9 18.4 22.9 17.9C22.9 16.9 23.9 17.3 23.9 14V4L17.5 17.9C17.3 18.4 16.7 18.7 16.2 18.7C15.6 18.7 15.2 18.4 14.9 17.9L8.4 4.4V14C8.4 17.2 9.4 16.9 9.4 17.9C9.4 18.4 9 18.8 8.4 18.8H6.7C6.1 18.8 5.7 18.4 5.7 17.9C5.7 16.9 6.7 17.3 6.7 14V1.6H5.5C3.6 1.6 2.3 2.4 2.3 3.6Z" fill="white"/>
<path d="M44.1 17.2C44.1 17.9 42.8 18.7 41.3 18.7C39.8 18.7 38.6 17.8 38.6 16.2V10.4C38.2 10.8 37.7 11.2 37 11.7C35.7 12.6 35.3 13.8 35.3 14.9C35.3 16.4 36.1 17.7 37.2 16.9C37.5 16.7 37.8 16.9 37.8 17.2C37.8 17.3 37.8 17.5 37.7 17.6C37.1 18.4 36.1 19.1 34.4 19.1C32.3 19.1 30.9 17.7 30.9 15.6C30.9 13.2 33.5 11.9 35.3 11C37.1 10.2 38.2 9.29999 38.2 7.99999C38.2 7.29999 37.6 6.59999 36.6 6.59999C35.2 6.59999 34.5 7.49999 34.5 8.59999C34.5 9.59999 33.8 9.79999 33.2 9.79999C32.6 9.79999 31.9 9.39999 31.9 8.49999C31.9 6.99999 33.8 5.29999 36.6 5.29999C40.5 5.29999 43 7.59999 43 11V16C43 16.5 43.1 16.8 43.5 16.7C43.9 16.6 44.1 16.8 44.1 17.2Z" fill="white"/>
<path d="M51.1 24.4C51.1 24.7 50.8 25 50.4 25H46C45.6 25 45.3 24.7 45.3 24.4C45.3 23.7 46 24 46 21.7V10.7C46 8.4 45.3 8.7 45.3 8C45.3 7.6 45.6 7.4 46 7.4C47.7 7.4 48.3 5.9 49.6 5.9C50 5.9 50.4 6.3 50.4 6.7V6.8C50.9 6.1 51.9 5.5 52.9 5.5C56.2 5.5 59.5 8.2 59.5 12.3C59.5 16.4 56.4 19.1 52.6 19.1C51.7 19.1 50.8 18.8 50.4 18.4V21.8C50.4 24 51.1 23.8 51.1 24.4ZM52.3 17.9C54.2 17.9 55 15.5 55 12.4C55 9.2 54.1 6.8 52.3 6.8C51.5 6.8 50.4 7.7 50.4 8.9V15.8C50.4 17.2 51.4 17.9 52.3 17.9Z" fill="white"/>
<path d="M61.3 15.4V10.7C61.3 8.4 60.6 8.7 60.6 8C60.6 7.6 60.9 7.4 61.3 7.4C63 7.4 63.6 5.9 64.9 5.9C65.3 5.9 65.7 6.3 65.7 6.7V7.5C66.8 6.3 67.8 5.5 69.3 5.5C70.9 5.5 72.2 6.2 72.9 7.7C74.1 6.3 75.6 5.5 77 5.5C79.2 5.5 81.1 7 81.1 10.7V15.4C81.1 17.7 81.8 17.4 81.8 18.1C81.8 18.4 81.5 18.7 81.1 18.7H76.7C76.3 18.7 76 18.4 76 18.1C76 17.4 76.7 17.7 76.7 15.4V9.9C76.7 8.5 76 8 75.2 8C74.3 8 73.4 8.8 73.4 9.9V15.4C73.4 17.7 74.1 17.4 74.1 18.1C74.1 18.4 73.8 18.7 73.4 18.7H69C68.6 18.7 68.3 18.4 68.3 18.1C68.3 17.4 69 17.7 69 15.4V9.9C69 8.5 68.3 8 67.5 8C66.6 8 65.7 8.7 65.7 9.9V15.4C65.7 17.7 66.4 17.4 66.4 18.1C66.4 18.4 66.1 18.7 65.7 18.7H61.3C60.9 18.7 60.6 18.4 60.6 18.1C60.6 17.4 61.3 17.6 61.3 15.4Z" fill="white"/>
<path d="M96.2 17.2C96.2 17.9 94.9 18.7 93.4 18.7C91.9 18.7 90.7 17.8 90.7 16.2V10.4C90.3 10.8 89.8 11.2 89.1 11.7C87.8 12.6 87.4 13.8 87.4 14.9C87.4 16.4 88.2 17.7 89.3 16.9C89.6 16.7 89.9 16.9 89.9 17.2C89.9 17.3 89.9 17.5 89.8 17.6C89.2 18.4 88.2 19.1 86.5 19.1C84.4 19.1 83 17.7 83 15.6C83 13.2 85.6 11.9 87.4 11C89.2 10.2 90.3 9.3 90.3 8C90.3 7.3 89.7 6.6 88.7 6.6C87.3 6.6 86.6 7.5 86.6 8.6C86.6 9.6 85.9 9.8 85.3 9.8C84.7 10 84 9.6 84 8.7C84 7.2 85.9 5.5 88.7 5.5C92.6 5.5 95.1 7.8 95.1 11.2V16C95.1 16.5 95.2 16.8 95.6 16.7C96 16.6 96.2 16.8 96.2 17.2Z" fill="white"/>
<path d="M103.2 24.4C103.2 24.7 102.9 25 102.5 25H98.1C97.7 25 97.4 24.7 97.4 24.4C97.4 23.7 98.1 24 98.1 21.7V10.7C98.1 8.4 97.4 8.7 97.4 8C97.4 7.6 97.7 7.4 98.1 7.4C99.8 7.4 100.4 5.9 101.7 5.9C102.1 5.9 102.5 6.3 102.5 6.7V6.8C103 6 104 5.5 105 5.5C108.3 5.5 111.6 8.2 111.6 12.3C111.6 16.4 108.5 19.1 104.7 19.1C103.8 19.1 102.9 18.8 102.5 18.4V21.8C102.5 24 103.2 23.8 103.2 24.4ZM104.4 17.9C106.3 17.9 107.1 15.5 107.1 12.4C107.1 9.2 106.2 6.8 104.4 6.8C103.6 6.8 102.5 7.7 102.5 8.9V15.8C102.5 17.2 103.5 17.9 104.4 17.9Z" fill="white"/>
<path d="M113.4 15.4V10.7C113.4 8.4 112.7 8.7 112.7 8C112.7 7.6 113 7.4 113.4 7.4C115.1 7.4 115.7 5.9 117 5.9C117.4 5.9 117.8 6.3 117.8 6.7V7.5C118.9 6.3 119.9 5.5 121.4 5.5C123 5.5 124.3 6.2 125 7.7C126.2 6.3 127.7 5.5 129.1 5.5C131.3 5.5 133.2 7 133.2 10.7V15.4C133.2 17.7 133.9 17.4 133.9 18.1C133.9 18.4 133.6 18.7 133.2 18.7H128.8C128.4 18.7 128.1 18.4 128.1 18.1C128.1 17.4 128.8 17.7 128.8 15.4V9.9C128.8 8.5 128.1 8 127.3 8C126.4 8 125.5 8.8 125.5 9.9V15.4C125.5 17.7 126.2 17.4 126.2 18.1C126.2 18.4 125.9 18.7 125.5 18.7H121.1C120.7 18.7 120.4 18.4 120.4 18.1C120.4 17.4 121.1 17.7 121.1 15.4V9.9C121.1 8.5 120.4 8 119.6 8C118.7 8 117.8 8.7 117.8 9.9V15.4C117.8 17.7 118.5 17.4 118.5 18.1C118.5 18.4 118.2 18.7 117.8 18.7H113.4C113 18.7 112.7 18.4 112.7 18.1C112.8 17.4 113.4 17.6 113.4 15.4Z" fill="white"/>
<path d="M148.3 17.2C148.3 17.9 147 18.7 145.5 18.7C144 18.7 142.8 17.8 142.8 16.2V10.4C142.4 10.8 141.9 11.2 141.2 11.7C139.9 12.6 139.5 13.8 139.5 14.9C139.5 16.4 140.3 17.7 141.4 16.9C141.7 16.7 142 16.9 142 17.2C142 17.3 142 17.5 141.9 17.6C141.3 18.4 140.3 19.1 138.6 19.1C136.5 19.1 135.1 17.7 135.1 15.6C135.1 13.2 137.7 11.9 139.5 11C141.3 10.2 142.4 9.29999 142.4 7.99999C142.4 7.29999 141.8 6.59999 140.8 6.59999C139.4 6.59999 138.7 7.49999 138.7 8.59999C138.7 9.59999 138 9.79999 137.4 9.79999C136.8 9.79999 136.1 9.39999 136.1 8.49999C136.1 6.99999 138 5.29999 140.8 5.29999C144.7 5.29999 147.2 7.59999 147.2 11V16C147.2 16.5 147.3 16.8 147.7 16.7C148.1 16.6 148.3 16.8 148.3 17.2Z" fill="white"/>
<path d="M155.3 24.4C155.3 24.7 155 25 154.6 25H150.2C149.8 25 149.5 24.7 149.5 24.4C149.5 23.7 150.2 24 150.2 21.7V10.7C150.2 8.4 149.5 8.7 149.5 8C149.5 7.6 149.8 7.4 150.2 7.4C151.9 7.4 152.5 5.9 153.8 5.9C154.2 5.9 154.6 6.3 154.6 6.7V6.8C155.1 6.1 156.1 5.5 157.1 5.5C160.4 5.5 163.7 8.2 163.7 12.3C163.7 16.4 160.6 19.1 156.8 19.1C155.9 19.1 155 18.8 154.5 18.4V21.8C154.6 24 155.3 23.8 155.3 24.4ZM156.5 17.9C158.4 17.9 159.2 15.5 159.2 12.4C159.2 9.2 158.3 6.8 156.5 6.8C155.7 6.8 154.6 7.7 154.6 8.9V15.8C154.6 17.2 155.6 17.9 156.5 17.9Z" fill="white"/>
<path d="M170.5 19.1C167.5 19.1 164.4 17.5 164.4 15.5C164.4 14.5 165.2 13.7 166.2 13.7C167.3 13.7 167.7 14.5 167.8 14.9C168.2 16.2 169.1 17.9 171 17.9C171.9 17.9 172.8 17.5 172.8 16.7C172.8 14.1 165 13.5 165 9.1C165 6.2 168.1 5.5 170.1 5.5C171.5 5.5 173.8 6 174.9 7C176.7 3 181.4 0 184.4 0C186.1 0 187 0.8 187 2C187 2.8 186.3 3.9 184.7 3.9C183.4 3.9 183 3.2 181.8 3.2C179.3 3.2 175.6 6.1 175.6 8.2C175.6 9 175 9.6 174.2 9.6C173.7 9.6 173.2 9.3 173 8.9C172.4 7.7 171.8 6.7 170.2 6.7C169.5 6.7 168.6 7 168.6 7.8C168.6 10 176.5 10.6 176.5 14.9C176.5 17.6 174.2 19.1 170.5 19.1Z" fill="white"/>
</svg>
